<?xml version="1.0" encoding="utf-8"?>
<!-- Generator: Adobe Illustrator 26.4.1, SVG Export Plug-In . SVG Version: 6.00 Build 0)  -->
<svg version="1.1" id="Layer_1" xmlns="http://www.w3.org/2000/svg" xmlns:xlink="http://www.w3.org/1999/xlink" x="0px" y="0px"
	 viewBox="0 0 445 569" style="enable-background:new 0 0 445 569;" xml:space="preserve">
<path d="M422.93,557.11c-119.84-18.03-239.4-18.11-359.06,0.36c47.52-21.51,97.6-32.3,149.88-35.8c-0.17-3.56-0.31-6.66-0.46-9.77
	c-0.68-13.98-1.21-27.97-2.15-41.93c-0.2-2.94-1.83-5.81-2.97-8.65c-0.42-1.05-1.38-1.87-1.99-2.86
	c-4.95-8.05-10.47-15.4-20.48-17.61c-1.09-0.24-2.05-1.07-3.04-1.68c-0.23-0.15-0.33-0.52-0.69-1.16
	c16.59,2.57,32.7,1.02,48.61-3.03c15.14-3.86,29.35-9.8,42.13-18.96c25.98-18.6,36.16-45.58,28.72-76.69
	c-1.31-5.46-3.12-10.8-5.74-16.02c0,1.11-0.09,2.22,0.01,3.32c3.47,38.71-13.31,69.42-46.7,85.05
	c-15.96,7.46-32.91,10.68-50.46,10.59c-33.4-0.16-63.96-9.03-89.53-31.23c-7.19-6.24-12.66-14.46-18.87-21.81
	c-1.03-1.22-1.81-2.65-3.02-4.46c-5.07,6.31-9.83,12.23-14.61,18.19c-9.5-11.1-9.4-28.94-0.4-44.62
	c-6.87,4.38-13.73,8.76-20.6,13.14c-7.34-12.51-2.06-26,16.29-42.86c-8.34-5.33-16.99-10.34-25.07-16.14
	c-11.07-7.94-20.53-17.54-26.48-30.07c-6.48-13.67-6.05-27.3,0.68-41.85c7.85,7.77,15.28,15.12,22.71,22.48
	c-6.57-14.55-12.2-29.12-10.28-45.27c0.65-5.45,2.88-10.72,4.38-16.07c0.56-0.07,1.12-0.13,1.68-0.2
	c8.61,10.64,17.22,21.28,25.84,31.91c-5.75-20.96-14.96-41.42-4.88-64.92c8.83,11.95,16.79,22.72,24.75,33.49
	c-4.39-17.78-8.12-35.23,4.05-52.61c7.4,10.68,14.36,20.72,21.47,30.97c0.46-0.61,0.95-0.97,0.94-1.31
	c-0.57-18.1-2.91-35.87-10.23-52.64c-6.2-14.2-15.4-25.28-32.43-29.01c8.95-7.26,18.3-10.57,28.95-10.64
	c10.49-0.06,19.66,3.95,28.71,8.92c-4.48-10.13-11.79-17.5-21.24-22.77c-16.12-8.99-33.4-9.39-51.03-6.38
	c-5.53,0.94-10.99,2.35-17.52,2.64c3.26-4.64,6.08-9.68,9.86-13.85c15.29-16.85,35.07-21.57,56.53-18.04
	c37.09,6.1,69.44,22.17,94.66,50.52c21.55,24.23,29.03,53.5,27.18,85.34c-2.08,35.59-14.28,67.97-32.97,97.95
	c-7.28,11.67-15.91,22.48-24.76,34.85c6.44,0,12.62,0.32,18.74-0.07c9.26-0.59,18.13-2.8,25.78-8.42c7.2-5.3,10.98-12.47,8.8-21.31
	c-9.93-40.26,1.01-75.73,24.4-108.38c4.16-5.81,8.94-11.18,13.44-16.76c0.83-1.03,1.67-2.07,3.05-2.81
	c-19.93,32.41-33.87,66.16-25.74,105.43c2.13-5.87,4.25-11.74,6.68-18.44c28.11,16.33,52.33,34.57,52.84,72.02
	c8.78-11.33,12.97-22.83,10.6-36.36c0.49-0.25,0.98-0.51,1.47-0.76c4.23,6.19,8.46,12.39,12.7,18.59
	c4.27-11.64,3.95-23.74,0.84-35.93c-0.37-1.45-0.8-2.89-1.26-4.32c-5.81-18.21-0.62-32.06,16.05-42.33c0.57,0.4,1.36,0.75,1.86,1.33
	c22.32,26.07,38.27,55.32,43.5,89.6c6.11,40.04-6.08,74.8-32.34,104.81c-15.21,17.38-33.04,31.91-52.48,44.46
	c-2.16,1.4-4.13,3.89-5.03,6.3c-3.58,9.68-6.76,19.51-9.97,29.32c-0.66,2.03-1.11,4.21-1.2,6.34c-0.67,16.15-1.09,32.31-1.91,48.45
	c-0.21,4.12,0.98,5.3,5.07,5.6c47.35,3.52,93.18,13.69,137.12,31.93C418.54,555.14,420.73,556.14,422.93,557.11z M260.61,520.87
	c-0.95-18.39-1.86-36.3-2.86-54.2c-0.06-1.08-0.69-2.23-1.34-3.15c-3.34-4.77-6.71-9.51-10.18-14.18c-2.05-2.75-8.42-2.82-9.66,0.26
	c-2.82,7.01-6.26,14.14-7.08,21.49c-1.5,13.52-1.32,27.22-1.79,40.85c-0.1,2.91-0.01,5.83-0.01,8.93
	C238.65,520.87,249.25,520.87,260.61,520.87z"/>
<path d="M294.55,128.59c-3.7-13.39,2.17-18.39,28.43-25.13c-2.16-0.79-4.28-2.16-6.48-2.28c-7.79-0.42-15.61-0.4-23.41-0.59
	c-5.3-0.13-10.73,0.31-15.88-0.64c-8.23-1.52-10.82-7.15-7.54-14.91c0.83-1.97,1.93-3.9,3.22-5.61c4.25-5.64,4.1-7.28-1.4-11.87
	c-0.87-0.72-1.67-1.52-3.57-3.26c3.01-0.34,5.15-1.21,6.85-0.67c8.2,2.59,16.28,5.52,24.38,8.4c2.84,1.01,5.59,2.24,8.39,3.36
	c0.37-0.48,0.74-0.96,1.1-1.44c-2.51-3.51-5.01-7.02-7.96-11.15c16.54-0.84,22.06,13.37,31.3,21.98c0.44-0.3,0.88-0.6,1.33-0.9
	c-0.24-2.45-0.48-4.9-0.78-8.03c1.32,0.53,2.43,0.69,3.15,1.3c12.05,10.19,17.9,22.99,15.82,38.88c-0.35,2.67-0.1,4.25,2.41,5.67
	c4.48,2.54,6.46,6.85,7.5,11.7c-8.18-0.6-16.01-1.18-23.83-1.76c-0.22,0.49-0.44,0.99-0.66,1.48c0.98,1.15,2.11,2.2,2.9,3.46
	c3.58,5.73,8.05,11.16,10.34,17.39c3.38,9.17-0.69,18.56-8.71,24c-6.96,4.72-14.18,3.35-19.03-3.78c-4.41-6.49-5.39-13.86-5.1-21.5
	c0.03-0.67,0.1-1.33,0.17-1.99c1.88-17.75-3.17-23.02-21.11-22.02C295.87,128.71,295.37,128.64,294.55,128.59z M323.44,119.96
	c-0.02-0.71-0.03-1.42-0.05-2.13c-2.12-1.33-4.32-3.79-6.32-3.64c-1.78,0.14-4.45,3.01-4.74,4.97c-0.45,3.05,2.12,5.52,5.33,4.86
	C319.78,123.59,321.53,121.38,323.44,119.96z"/>
</svg>
